<?xml version="1.0" standalone="no"?>
<!DOCTYPE svg PUBLIC "-//W3C//DTD SVG 20010904//EN"
 "http://www.w3.org/TR/2001/REC-SVG-20010904/DTD/svg10.dtd">
<svg version="1.0" xmlns="http://www.w3.org/2000/svg"
 width="512.000000pt" height="512.000000pt" viewBox="0 0 512.000000 512.000000"
 preserveAspectRatio="xMidYMid meet">

<g transform="translate(0.000000,512.000000) scale(0.100000,-0.100000)"
fill="#000000" stroke="none">
<path d="M547 4399 c-92 -22 -173 -88 -216 -179 l-26 -55 0 -1395 0 -1395 25
-50 c13 -27 46 -71 72 -97 65 -63 133 -88 243 -88 l85 0 0 -145 0 -145 -219 0
-220 0 -20 -26 c-27 -35 -26 -59 4 -89 l24 -25 2261 0 2261 0 24 25 c30 30 31
54 4 89 l-20 26 -220 0 -219 0 0 145 0 145 85 0 c149 0 255 62 315 185 l25 50
0 1395 0 1395 -26 55 c-33 70 -89 126 -159 159 l-55 26 -1995 2 c-1143 0
-2011 -3 -2033 -8z m4050 -161 c24 -16 49 -44 62 -70 l21 -44 0 -1350 c0
-1296 -1 -1351 -19 -1390 -10 -23 -36 -54 -57 -70 -33 -26 -47 -29 -126 -32
l-88 -4 0 805 0 806 -26 20 c-26 20 -38 21 -335 21 -209 0 -316 -4 -333 -11
-14 -7 -30 -25 -36 -42 -6 -20 -10 -292 -10 -813 l0 -784 -115 0 -115 0 0 344
c0 190 -4 356 -9 369 -17 45 -45 48 -380 45 l-313 -3 -19 -24 c-18 -22 -19
-44 -19 -377 l0 -354 -120 0 -120 0 0 719 0 720 -26 20 c-26 20 -38 21 -346
21 l-319 0 -24 -25 -25 -24 0 -716 0 -715 -115 0 -115 0 0 234 c0 137 -4 245
-10 263 -6 17 -22 35 -36 42 -17 7 -124 11 -333 11 -297 0 -309 -1 -335 -21
l-26 -20 0 -256 0 -255 -88 4 c-79 3 -93 6 -126 32 -21 16 -47 47 -57 70 -18
39 -19 94 -19 1390 0 1348 0 1350 21 1393 22 45 61 79 107 93 15 5 918 8 2008
7 l1980 -2 41 -27z m-347 -2418 l0 -970 -227 2 -228 3 -3 955 c-1 525 0 961 3
968 3 9 59 12 230 12 l225 0 0 -970z m-1950 -85 l0 -885 -230 0 -230 0 0 885
0 885 230 0 230 0 0 -885z m978 -362 l2 -523 -230 0 -230 0 0 525 0 525 228
-2 227 -3 3 -522z m-1953 -103 l0 -415 -227 -3 -228 -2 0 420 0 420 228 -2
227 -3 0 -415z m375 -275 l0 -145 -115 0 -115 0 0 145 0 145 115 0 115 0 0
-145z m980 0 l0 -145 -120 0 -120 0 0 145 0 145 120 0 120 0 0 -145z m970 0
l0 -145 -115 0 -115 0 0 145 0 145 115 0 115 0 0 -145z"/>
<path d="M1979 3797 c-93 -35 -146 -87 -180 -177 -24 -64 -24 -136 0 -199 l18
-49 -282 -282 -282 -281 -64 21 c-79 27 -148 23 -224 -15 -181 -88 -215 -329
-66 -468 146 -137 381 -86 463 101 25 56 26 161 2 221 l-17 43 74 72 c41 40
169 165 284 278 l210 207 55 -19 c70 -24 130 -24 199 -1 l55 19 283 -276 c156
-151 283 -281 283 -288 0 -6 -7 -28 -15 -47 -20 -48 -19 -142 2 -203 23 -68
102 -145 172 -169 68 -22 169 -17 226 13 127 65 191 217 146 348 l-20 61 280
279 c167 166 287 278 297 277 9 -1 35 -8 57 -17 172 -66 375 80 375 269 0 126
-60 220 -171 270 -144 64 -309 2 -381 -144 -30 -60 -32 -179 -4 -230 l18 -34
-286 -286 -285 -285 -38 18 c-60 29 -138 32 -208 8 l-60 -21 -40 37 c-22 20
-151 146 -286 280 l-246 244 18 49 c50 131 -8 286 -132 354 -63 34 -171 44
-230 22z m172 -150 c94 -62 90 -199 -7 -254 -129 -74 -273 64 -206 197 25 50
75 80 132 80 32 0 58 -7 81 -23z m1947 3 c100 -61 96 -205 -8 -262 -89 -49
-206 18 -217 123 -11 115 125 200 225 139z m-2944 -954 c96 -40 119 -168 44
-243 -57 -57 -149 -58 -206 -2 -119 117 8 309 162 245z m1974 -13 c70 -52 88
-122 50 -192 -74 -139 -278 -88 -278 70 0 88 72 154 159 146 24 -3 55 -13 69
-24z"/>
</g>
</svg>
