<?xml version="1.0" standalone="no"?>
<!DOCTYPE svg PUBLIC "-//W3C//DTD SVG 20010904//EN"
 "http://www.w3.org/TR/2001/REC-SVG-20010904/DTD/svg10.dtd">
<svg version="1.0" xmlns="http://www.w3.org/2000/svg"
 width="512.000000pt" height="512.000000pt" viewBox="0 0 512.000000 512.000000"
 preserveAspectRatio="xMidYMid meet">

<g transform="translate(0.000000,512.000000) scale(0.100000,-0.100000)"
fill="#000000" stroke="none">
<path d="M375 4996 c-108 -34 -195 -110 -242 -211 l-28 -60 0 -2165 0 -2165
29 -62 c35 -76 113 -153 193 -191 l58 -27 1770 0 1770 0 57 27 c74 34 152 112
186 186 l27 57 3 992 2 992 375 418 c237 264 386 438 404 473 87 163 52 364
-86 490 -134 123 -351 132 -503 21 -30 -22 -82 -71 -115 -110 -33 -39 -63 -71
-67 -71 -4 0 -9 258 -10 573 l-3 572 -29 57 c-40 78 -108 145 -186 182 l-65
31 -1750 2 c-1394 1 -1758 -1 -1790 -11z m3561 -171 c30 -19 60 -49 79 -79
l30 -49 3 -644 2 -643 -29 -33 c-82 -91 -221 -246 -256 -286 -22 -25 -260
-293 -530 -594 -269 -302 -512 -574 -539 -605 -26 -31 -74 -84 -105 -116 -31
-33 -72 -78 -91 -102 -19 -23 -58 -69 -85 -101 l-51 -59 -53 -311 c-32 -182
-51 -321 -47 -337 3 -14 19 -32 36 -41 28 -15 41 -12 282 55 139 39 282 80
318 91 l65 19 540 603 540 603 3 -866 c2 -621 -1 -877 -9 -906 -14 -54 -60
-109 -112 -137 l-42 -22 -1736 0 -1736 0 -49 30 c-30 19 -60 49 -79 79 l-30
49 0 2136 0 2136 28 47 c30 51 70 84 126 104 29 11 367 13 1757 11 l1721 -2
49 -30z m807 -1156 c84 -43 127 -117 127 -219 0 -42 -7 -79 -19 -106 -10 -23
-80 -109 -156 -193 l-137 -151 -92 82 c-51 46 -133 119 -183 163 -50 44 -91
83 -90 87 4 15 263 301 291 321 69 49 180 56 259 16z m-469 -622 c97 -86 176
-161 176 -165 -1 -4 -27 -36 -60 -72 l-59 -65 -28 26 c-15 14 -97 87 -181 162
-84 75 -153 140 -154 143 -2 12 107 133 119 131 6 -1 91 -73 187 -160z m-233
-248 c98 -88 179 -165 179 -170 0 -5 -26 -37 -57 -71 -32 -34 -72 -78 -90 -97
-17 -20 -206 -231 -418 -469 l-387 -432 -28 22 c-15 13 -98 86 -184 162 -137
123 -154 142 -143 157 16 23 941 1059 945 1059 2 0 84 -72 183 -161z m-1048
-1203 c92 -83 166 -153 165 -156 -2 -4 -24 -30 -49 -58 l-46 -50 -169 150
c-93 82 -175 156 -183 163 -12 11 -7 22 34 69 41 48 49 54 64 43 10 -6 93 -79
184 -161z m-209 -222 l175 -157 -40 -47 -39 -47 -221 -62 c-122 -34 -223 -60
-224 -59 -2 2 14 104 36 227 38 222 39 223 76 266 21 24 44 41 50 39 7 -2 91
-74 187 -160z"/>
<path d="M1446 4377 c-19 -19 -26 -43 -36 -115 l-13 -91 -36 -12 c-20 -6 -61
-22 -93 -36 l-56 -25 -74 56 c-106 79 -118 78 -225 -26 -93 -91 -118 -128
-107 -161 4 -12 28 -49 53 -82 65 -83 64 -80 43 -122 -11 -21 -27 -61 -36 -90
l-17 -51 -92 -13 c-135 -18 -137 -22 -137 -194 0 -172 2 -176 137 -194 l91
-13 17 -51 c9 -29 26 -70 36 -91 l19 -39 -54 -72 c-29 -39 -56 -81 -60 -92
-11 -33 14 -70 107 -161 107 -104 119 -105 224 -26 l74 55 77 -30 c42 -16 84
-31 93 -34 12 -4 19 -29 29 -98 18 -136 23 -139 190 -139 131 0 132 0 159 28
23 23 30 40 36 97 10 95 18 112 57 120 18 4 57 18 87 31 29 13 58 21 65 17 6
-4 39 -28 74 -55 95 -73 107 -70 225 51 118 120 119 125 42 227 -30 40 -55 77
-55 81 0 4 16 46 35 93 l34 85 91 16 c134 24 135 26 135 195 0 134 0 136 -26
158 -19 16 -50 26 -113 35 -64 10 -89 18 -93 30 -3 9 -19 50 -35 92 l-30 77
56 74 c78 104 78 109 -41 229 -120 123 -128 124 -234 44 -40 -30 -76 -55 -81
-55 -5 0 -25 8 -46 19 -20 10 -57 25 -80 32 -51 15 -57 26 -67 124 -6 57 -13
74 -36 97 -27 28 -28 28 -159 28 -124 0 -132 -1 -154 -23z m209 -217 c14 -98
26 -117 78 -130 67 -17 128 -40 186 -71 76 -41 97 -38 175 23 l67 51 30 -29
30 -30 -51 -66 c-27 -35 -51 -76 -52 -89 -1 -13 17 -62 39 -109 23 -47 44
-101 48 -120 4 -19 13 -49 20 -67 15 -35 42 -46 148 -58 l57 -7 0 -43 0 -42
-80 -11 c-44 -6 -89 -16 -100 -22 -12 -6 -28 -40 -44 -94 -15 -46 -40 -110
-57 -143 -43 -79 -40 -102 21 -181 l51 -66 -30 -30 -30 -29 -67 51 c-78 61
-99 64 -175 22 -54 -30 -106 -49 -186 -70 -52 -13 -64 -32 -78 -130 l-10 -75
-43 -3 c-23 -2 -42 0 -42 3 0 35 -25 155 -36 172 -9 15 -38 29 -86 44 -40 12
-103 37 -140 55 -37 19 -79 34 -94 34 -15 0 -49 -18 -82 -43 -83 -63 -80 -62
-112 -32 l-29 28 54 70 c30 39 55 81 55 93 0 13 -15 52 -34 86 -19 35 -44 97
-55 138 -12 41 -29 82 -38 92 -11 11 -50 22 -103 30 l-85 13 0 40 0 40 85 13
c101 15 115 27 136 108 8 32 33 95 55 139 21 45 39 90 39 101 0 11 -25 52 -55
91 l-54 70 29 28 c32 30 29 31 112 -32 31 -24 67 -43 79 -43 13 0 59 18 104
39 44 22 104 45 134 52 70 15 96 42 105 105 17 122 14 115 60 112 l41 -3 10
-75z"/>
<path d="M1484 3709 c-71 -27 -127 -79 -163 -151 -27 -52 -31 -72 -31 -138 0
-66 4 -86 31 -138 117 -234 452 -226 561 13 32 70 31 180 -1 253 -32 70 -115
147 -183 167 -69 20 -152 18 -214 -6z m182 -148 c97 -44 119 -174 43 -250 -64
-65 -157 -65 -220 -2 -60 60 -65 149 -12 212 50 59 117 73 189 40z"/>
<path d="M2535 4377 c-35 -30 -38 -78 -7 -110 16 -16 37 -22 87 -25 35 -2 80
-1 100 2 68 13 96 78 56 127 -17 22 -29 24 -113 27 -88 4 -97 2 -123 -21z"/>
<path d="M3076 4379 c-32 -25 -35 -75 -7 -110 19 -24 20 -24 267 -27 137 -2
264 -1 282 3 70 13 95 82 47 130 l-24 25 -269 0 c-257 0 -270 -1 -296 -21z"/>
<path d="M2860 3783 c-26 -33 -21 -79 11 -105 19 -16 54 -18 396 -18 l374 0
24 25 c31 30 32 73 5 103 -21 22 -23 22 -405 22 l-384 0 -21 -27z"/>
<path d="M2716 3199 c-34 -27 -36 -77 -3 -107 23 -22 25 -22 478 -22 l456 0
21 23 c29 31 28 72 -3 102 l-24 25 -449 0 c-439 0 -450 0 -476 -21z"/>
<path d="M648 2625 c-52 -29 -49 -103 4 -131 47 -24 170 -16 200 13 28 29 28
77 -1 106 -18 18 -35 22 -99 25 -55 1 -85 -2 -104 -13z"/>
<path d="M2460 2611 c-17 -16 -30 -39 -30 -51 0 -12 13 -35 30 -51 l30 -30
199 3 c179 3 201 5 220 22 14 13 21 31 21 56 0 25 -7 43 -21 56 -19 17 -41 19
-220 22 l-199 3 -30 -30z"/>
<path d="M641 2014 c-28 -35 -26 -69 4 -99 l24 -25 831 0 831 0 24 25 c30 30
32 64 4 99 l-20 26 -839 0 -839 0 -20 -26z"/>
<path d="M645 1435 c-32 -31 -33 -74 -2 -103 l23 -22 647 0 c634 0 647 0 667
20 28 28 26 75 -5 105 l-24 25 -641 0 -641 0 -24 -25z"/>
<path d="M671 859 c-55 -22 -68 -83 -26 -124 l24 -25 679 0 c672 0 680 0 706
21 46 36 32 108 -25 128 -41 14 -1323 14 -1358 0z"/>
<path d="M2830 863 c-56 -21 -76 -81 -41 -124 l19 -24 416 -3 416 -3 25 25
c43 43 30 105 -26 125 -33 11 -779 15 -809 4z"/>
</g>
</svg>
