<svg xmlns="http://www.w3.org/2000/svg" width="20.49" height="20.495" viewBox="0 0 20.49 20.495">
    <path fill="#FFFFFF" d="M23.3 14.745a2.637 2.637 0 0 1 1.691-2.46 10.451 10.451 0 0 0-1.265-3.047 2.672 2.672 0 0 1-1.073.229 2.631 2.631 0 0 1-2.406-3.7A10.42 10.42 0 0 0 17.2 4.5a2.634 2.634 0 0 1-4.92 0 10.451 10.451 0 0 0-3.042 1.265 2.631 2.631 0 0 1-2.406 3.7 2.585 2.585 0 0 1-1.073-.229A10.682 10.682 0 0 0 4.5 12.29a2.636 2.636 0 0 1 .005 4.92 10.451 10.451 0 0 0 1.265 3.047 2.632 2.632 0 0 1 3.474 3.474A10.512 10.512 0 0 0 12.29 25a2.63 2.63 0 0 1 4.91 0 10.451 10.451 0 0 0 3.047-1.265 2.634 2.634 0 0 1 3.474-3.474 10.512 10.512 0 0 0 1.265-3.047 2.649 2.649 0 0 1-1.686-2.469zm-8.505 4.263a4.269 4.269 0 1 1 4.269-4.269 4.268 4.268 0 0 1-4.271 4.269z" transform="translate(-4.5 -4.5)"/>
</svg>
