<?xml version="1.0" standalone="no"?>
<!DOCTYPE svg PUBLIC "-//W3C//DTD SVG 20010904//EN"
 "http://www.w3.org/TR/2001/REC-SVG-20010904/DTD/svg10.dtd">
<svg version="1.0" xmlns="http://www.w3.org/2000/svg"
 width="512.000000pt" height="512.000000pt" viewBox="0 0 512.000000 512.000000"
 preserveAspectRatio="xMidYMid meet">

<g transform="translate(0.000000,512.000000) scale(0.100000,-0.100000)"
fill="#000000" stroke="none">
<path d="M2370 4949 c-675 -83 -1229 -547 -1419 -1189 -50 -165 -65 -277 -65
-470 0 -152 4 -192 28 -305 101 -482 408 -1101 944 -1910 219 -330 280 -398
413 -464 191 -94 387 -94 578 0 133 66 194 134 413 464 537 811 843 1429 944
1910 24 113 28 153 28 305 0 125 -5 203 -18 275 -64 351 -217 645 -471 901
-246 249 -551 408 -900 469 -109 20 -372 27 -475 14z m481 -178 c553 -112
1002 -518 1163 -1053 46 -152 60 -252 61 -423 0 -193 -19 -297 -100 -540 -143
-429 -415 -940 -850 -1595 -123 -185 -201 -292 -239 -328 -181 -171 -470 -172
-650 -2 -82 77 -386 534 -609 915 -121 205 -295 542 -372 720 -72 164 -157
418 -186 555 -30 141 -33 379 -5 525 55 294 192 565 391 774 261 273 568 426
955 475 79 10 347 -4 441 -23z"/>
<path d="M2320 4067 c-49 -16 -133 -102 -148 -153 -7 -23 -12 -67 -12 -98 l0
-56 -136 0 c-78 0 -154 -5 -178 -12 -55 -16 -138 -99 -154 -154 -17 -58 -17
-890 0 -948 16 -55 99 -138 154 -154 31 -9 215 -12 716 -12 769 0 736 -3 811
80 24 26 49 66 55 88 17 55 17 889 0 944 -6 22 -31 62 -55 88 -61 68 -102 80
-275 80 l-138 0 0 56 c0 81 -18 129 -67 184 -66 73 -96 80 -337 79 -116 -1
-216 -6 -236 -12z m455 -172 c21 -20 25 -34 25 -80 l0 -55 -240 0 -240 0 0 55
c0 46 4 60 25 80 24 25 26 25 215 25 189 0 191 0 215 -25z m480 -320 l25 -24
0 -431 0 -431 -25 -24 -24 -25 -671 0 -671 0 -24 25 -25 24 0 431 0 431 25 24
24 25 671 0 671 0 24 -25z"/>
<path d="M1500 1024 c-405 -85 -620 -221 -620 -391 0 -44 47 -128 92 -168 23
-19 80 -54 127 -79 190 -97 462 -159 901 -202 217 -22 860 -25 1070 -6 461 44
756 108 951 208 109 56 160 100 193 166 32 64 33 108 2 174 -42 91 -170 173
-368 238 -100 33 -333 86 -377 86 -32 0 -71 -43 -71 -78 0 -57 23 -71 170
-101 240 -50 417 -120 484 -190 26 -27 29 -35 20 -59 -40 -114 -479 -238 -999
-282 -450 -38 -1048 -17 -1440 52 -328 57 -595 168 -595 247 0 22 52 71 110
104 67 38 247 96 400 128 147 30 170 44 170 101 0 38 -40 78 -77 77 -15 0 -80
-11 -143 -25z"/>
</g>
</svg>
